<svg width="88" height="29" viewBox="0 0 88 29" fill="none" xmlns="http://www.w3.org/2000/svg">
<path fill-rule="evenodd" clip-rule="evenodd" d="M30.9441 0.0187716H33.6815C39.6387 0.0187716 44.7037 0.444016 48.7039 2.11536C52.928 3.88022 55.7681 6.94406 57.4013 11.6195C59.057 16.3594 57.4776 20.8152 54.4507 23.9347C51.4715 27.0051 47.0039 28.9165 42.3609 28.9165H30.9441V0.0187716ZM36.4188 5.42961V23.5432H42.3609C45.535 23.5432 48.5604 22.2138 50.4862 20.2291C52.3644 18.2935 53.102 15.8798 52.2225 13.3621C51.0511 10.0088 49.2417 8.17995 46.5596 7.0593C44.128 6.04334 40.8618 5.56026 36.4188 5.42961Z" fill="#4DE87D"/>
<path fill-rule="evenodd" clip-rule="evenodd" d="M68.7575 0.879668C70.7605 0.121128 72.7306 -0.0387646 74.6476 0.00723195C79.4303 0.121992 82.7966 1.96785 84.9537 4.25106C86.9971 6.41388 88 9.03227 88 10.8431H82.7558V10.8432C82.7558 10.8432 82.7558 10.8354 82.7546 10.8193C82.7534 10.8023 82.751 10.7781 82.7468 10.7468C82.7382 10.6835 82.7229 10.5988 82.6975 10.4943C82.6462 10.2837 82.5599 10.0183 82.4272 9.71617C82.1611 9.1102 81.7333 8.41226 81.1084 7.75075C79.9019 6.47375 77.8709 5.23314 74.5194 5.15272C72.9865 5.11594 71.7724 5.25481 70.6452 5.68166C69.5296 6.10413 68.3154 6.87919 66.9142 8.37993C65.5617 9.82846 64.6641 12.1397 64.6043 14.6234C64.545 17.0907 65.3172 19.4003 66.8635 20.9654C68.4926 22.6143 70.8471 23.853 74.5835 23.853C79.1432 23.853 80.9598 22.1427 81.7947 20.8094C82.7567 19.2733 82.7558 17.6675 82.7558 17.649V17.6489H88C88 17.9562 87.9968 20.7351 86.2625 23.5045C84.3988 26.4805 80.8182 29 74.5835 29C69.4675 29 65.7425 27.2244 63.0987 24.5484C60.3599 21.7764 59.2772 18.0148 59.3616 14.5019C59.4457 11.0053 60.6905 7.42731 63.0479 4.90251C64.8807 2.93953 66.7429 1.64258 68.7575 0.879668Z" fill="#4DE87D"/>
<path fill-rule="evenodd" clip-rule="evenodd" d="M22.1962 5.71382C22.3738 5.63558 22.5743 5.76411 22.5727 5.95516L22.5102 13.223C22.5093 13.3253 22.4479 13.4178 22.3528 13.4598L15.5871 16.4512C15.4093 16.5298 15.2085 16.401 15.2104 16.2096L15.2827 8.92693C15.2837 8.82463 15.3453 8.73226 15.4404 8.69036L22.1962 5.71382Z" fill="#4DE87D"/>
<path d="M7.50194 21.8227C6.15604 24.7316 5.4747 27.2148 5.4747 28.9065H0C0 26.0819 1.05029 22.7713 2.51713 19.601C3.11098 18.3175 3.79264 17.0155 4.54097 15.7259C3.42765 12.88 2.83681 9.3803 2.83681 5.18291H8.31152C8.31152 6.81484 8.40952 8.26534 8.58799 9.55471C8.74855 11.3262 9.17502 13.6953 10.7821 15.9923C10.7819 15.9926 10.7817 15.9929 10.7815 15.9932C11.6445 17.2845 12.66 18.1488 13.7039 18.7296C16.2961 20.1719 19.8045 20.316 23.637 19.6161C23.6514 15.9755 23.6406 12.5752 23.6324 10.0066V10.0063L23.6324 10.0051V10.0046C23.6293 9.04417 23.6266 8.20004 23.6257 7.50314L23.6479 4.92449C23.652 4.44687 23.1508 4.12554 22.7069 4.32115L14.5011 7.93651C14.2633 8.04125 14.1094 8.27218 14.1069 8.52793L14.0766 11.5772C13.6191 12.1185 13.164 12.685 12.7149 13.2727C12.2739 13.8497 11.8427 14.4419 11.4243 15.0443C9.87521 12.6337 9.69046 10.1953 9.58338 8.48047C11.5166 6.15005 13.6177 4.06553 15.7169 2.55924C18.1051 0.845492 21.2699 -0.671327 24.3502 0.342132C24.3304 0.33561 24.5225 0.396404 24.6643 0.446307C24.8371 0.507107 25.0541 0.590199 25.2972 0.702513C25.7815 0.926253 26.3802 1.27071 26.9637 1.80302C28.2086 2.93881 29.1001 4.67034 29.1001 7.07185C29.1001 7.81771 29.1033 8.79687 29.107 9.95143V9.95362C29.1167 13.0209 29.1305 17.3255 29.1001 21.7829V28.9065H23.6254V25.0678C19.4213 25.7038 14.8633 25.5514 11.0039 23.404C9.85135 22.7627 8.80774 21.9722 7.88157 21.027C7.75069 21.2934 7.62406 21.5588 7.50194 21.8227Z" fill="#4DE87D"/>
</svg>
